<svg xmlns="http://www.w3.org/2000/svg" xmlns:xlink="http://www.w3.org/1999/xlink" id="Layer_1" x="0px" y="0px" viewBox="0 0 500 500" style="enable-background:new 0 0 500 500;" xml:space="preserve"><g> <g> <g> <path d="M349.793,312.155c-6.716,0-13.438-2.563-18.559-7.688c-10.253-10.25-10.253-26.87,0-37.121l96.285-96.285    c8.369-8.372,12.983-19.502,12.983-31.34s-4.614-22.967-12.983-31.338l-34.47-34.476c-17.29-17.275-45.397-17.281-62.686,0.002    l-96.285,96.284c-10.241,10.252-26.877,10.252-37.117,0c-10.253-10.25-10.253-26.87,0-37.12l96.285-96.286    c37.745-37.745,99.175-37.746,136.921-0.001l34.47,34.476C482.926,89.546,493,113.859,493,139.721s-10.074,50.175-28.363,68.462    l-96.285,96.284C363.231,309.592,356.509,312.155,349.793,312.155z"></path> </g> </g> <g> <g> <path d="M139.715,492.998c-25.858,0-50.171-10.072-68.454-28.358l-34.477-34.472c-37.745-37.75-37.745-99.172,0-136.921    l96.285-96.286c10.241-10.252,26.877-10.252,37.117,0c10.253,10.25,10.253,26.87,0,37.121l-96.285,96.285    c-17.277,17.281-17.277,45.399,0,62.681l34.477,34.472c16.751,16.748,45.941,16.738,62.68,0.002l96.292-96.287    c10.253-10.25,26.877-10.251,37.117,0.001c10.253,10.251,10.253,26.871,0,37.121l-96.292,96.285    C189.892,482.927,165.579,492.998,139.715,492.998z"></path> </g> </g> <g> <g> <path d="M177.62,350.055c-6.716,0-13.438-2.563-18.559-7.688c-10.253-10.25-10.253-26.87,0-37.121L298.75,165.558    c10.241-10.252,26.877-10.252,37.117,0c10.253,10.25,10.253,26.87,0,37.121L196.179,342.367    C191.058,347.493,184.336,350.055,177.62,350.055z"></path> </g> </g></g></svg>
