<svg xmlns="http://www.w3.org/2000/svg" xmlns:xlink="http://www.w3.org/1999/xlink" id="Layer_1" x="0px" y="0px" viewBox="0 0 500 500" style="enable-background:new 0 0 500 500;" xml:space="preserve"><g> <g> <path d="M123.324,94.382l283.47,278.628c-1.393,1.25-3.064,2.779-4.875,4.168c-12.813,9.723-25.625,19.585-38.716,28.89   c-22.072,14.512-47.072,23.98-73.219,27.732c-15.707,2.87-31.624,4.432-47.589,4.669c-35.898,1.206-71.794,1.299-107.552,2.366   c-4.621,0.358-8.986,2.264-12.39,5.41c-11.701,11.115-22.708,22.928-34.131,34.322c-17.688,18.913-47.359,19.905-66.272,2.217   c-0.126-0.117-0.251-0.236-0.375-0.354c-18.304-17.77-18.736-47.014-0.965-65.318c0.345-0.355,0.695-0.704,1.051-1.048   c10.589-11.395,21.455-22.373,32.6-33.211c4.973-4.373,7.693-10.766,7.396-17.382c0.055-42.574,0.109-85.009,0.164-127.444   c1.009-27.85,6.932-55.303,17.496-81.091c4.455-9.869,10.022-19.198,16.592-27.805C104.652,116.62,114.545,105.363,123.324,94.382   z"></path> </g> <g> <path d="M384.202,306.059l-58.363-56.562l51.128-51.552c16.299-16.397,32.599-32.793,48.621-49.468   c6.269-7.305,16.304-10.143,25.47-7.202c20.525,4.717,36.329,21.108,40.294,41.791c2.123,7.472,0.037,15.507-5.453,21.002   L384.202,306.059z"></path> </g> <g> <path d="M246.357,170.785l-58.084-56.98l5.712-6.254c30.649-31.126,61.576-62.252,91.947-93.796   c6.95-7.83,17.707-11.095,27.837-8.451c20.748,5.324,36.291,22.554,39.457,43.738c0.43,6.811-1.659,13.542-5.868,18.914   c-32.462,34.185-65.757,67.533-98.913,101.022C247.75,169.813,246.775,170.368,246.357,170.785z"></path> </g></g></svg>
