<svg xmlns="http://www.w3.org/2000/svg" xmlns:xlink="http://www.w3.org/1999/xlink" id="Layer_1" x="0px" y="0px" viewBox="0 0 1000 1000" style="enable-background:new 0 0 1000 1000;" xml:space="preserve"><g> <path d="M494.8129578,10.804184C626.3381348,12.673789,737.2041626,55.6097908,830.34552,141.1570435  c92.9317627,85.3546448,145.9373779,192.0297852,156.5628052,317.8021851  c11.427063,135.2630615-28.2028198,255.7637329-116.5062256,358.5936279  C772.1616211,931.9545288,645.6612549,989.2567139,495.273468,989.1957397  c-121.1662598-0.0490723-228.7004089-41.7840576-319.0742188-122.6085815  C72.912056,774.2138672,15.9476137,657.932251,11.464776,518.796814  C7.0333509,381.2570496,52.5956459,261.3534241,148.5744324,162.0312958  C244.3658295,62.9031258,362.0878601,13.5168953,494.8129578,10.804184z M225.2348785,314.2462769  c0,1.5491028-0.1370239,2.1226807,0.0202484,2.5990601c3.013504,9.1275024,5.8654938,18.3148804,9.1486206,27.3452454  c4.8973236,13.4702454,10.1528625,26.8098145,15.1642303,40.2392578  c4.7891846,12.8338928,9.3896942,25.7384949,14.2081757,38.5613098  c3.5279236,9.3883667,7.4120178,18.6437378,10.8830872,28.0522766c3.1868896,8.6382751,5.8632202,17.4653625,9.0691528,26.0960999  c5.1330566,13.8188171,10.5809937,27.5203552,15.7781067,41.3157959  c4.9217834,13.0645752,9.6602173,26.1981201,14.5404358,39.2785645c3.2185059,8.626709,6.6512756,17.1744385,9.7931824,25.8283081  c3.0962524,8.5282593,5.8204346,17.1920776,8.9440613,25.7098389c2.6489868,7.2235107,5.7503357,14.2802124,8.446991,21.4873657  c5.0342102,13.4545898,9.8781128,26.9802856,14.8826904,40.446106c3.1600342,8.5027466,6.5439758,16.9223633,9.688324,25.4306641  c3.2390442,8.7646484,6.2891235,17.5987549,9.4585876,26.3893433c3.5892029,9.9547729,7.3164978,19.8609619,10.7903442,29.8556519  c1.7429504,5.0147705,3.3387146,5.7485352,7.4379272,2.4159546c1.059906-0.8616943,1.7462158-2.4200439,2.1668701-3.7924805  c2.6600647-8.6777344,5.191864-17.3946533,7.776001-26.0957031c2.6226807-8.8308716,5.0792542-17.7160645,7.9258423-26.4743042  c4.8922119-15.0523071,10.1978455-29.9711914,15.0190125-45.0455322  c4.7937012-14.9882812,9.1387024-30.1195068,13.8033447-45.1499023  c3.9752197-12.8084717,8.1809387-25.5452881,12.1759338-38.3477173c2.2506104-7.2124023,4.1542969-14.5337524,6.4404297-21.7341919  c3.56427-11.2260742,7.31604-22.3926392,10.9972839-33.581543c3.3938904-10.3152771,6.4566345-20.7590332,10.362915-30.8768005  c1.6411438-4.2507324,1.3543396-7.9356079-0.0557251-11.7636108c-3.2765503-8.8952332-6.7425842-17.7214661-10.1934509-26.5515442  c-3.8867188-9.9453125-7.9198608-19.8340149-11.7409973-29.8042603  c-2.9963379-7.8181458-5.7104797-15.7441101-8.6528931-23.5835266c-3.2332458-8.6140747-6.5763855-17.1869202-9.8863831-25.7720947  c-2.9740295-7.713623-6.0064697-15.4048767-8.9415588-23.1332397c-2.5919189-6.824585-5.380188-13.594574-7.5525513-20.553894  c-3.2857361-10.5265503-6.2716675-12.8999939-17.2696533-13.7554626  c-11.0864258-0.8623047-22.1501465-2.0796204-33.196228-3.3762817  c-7.1172485-0.8354492-11.1039429-5.2660522-12.9429016-12.1941528  c-2.7177734-10.2391052-3.1715088-20.252533,0.3088379-30.4212341c1.9170532-5.6012878,3.2287903-11.7792206,9.6534729-13.618866  c4.2915955-1.2288208,9.0817566-1.3871155,13.5818176-1.0707855c8.2544861,0.5802612,16.4354553,2.3746185,24.6893616,2.7617798  c25.7853394,1.2095947,51.5853271,2.5313568,77.3894653,2.7764893c19.5419922,0.1856842,39.1108398-0.9786682,58.6454468-1.9781952  c14.4987183-0.7418213,28.9541016-2.2984772,43.4439697-3.2632904c7.03479-0.4684143,14.1136475-0.7151031,21.1554565-0.500473  c5.9526367,0.1814575,10.2756958,3.5427246,12.3425903,9.1305847c2.8372192,7.6705322,5.0943604,15.6126099,3.6859131,23.8574524  c-1.5263672,8.9342651-2.8112793,18.5697327-12.050354,23.1843567c-6.3679199,3.1805725-13.359314,5.4060974-20.3117065,7.0357056  c-6.2977295,1.4761963-12.9137573,1.6351318-19.4022217,2.2366028c-2.6912231,0.2494812-3.6018677,1.3224487-2.7558594,3.9627075  c3.552002,11.0856323,6.8365479,22.2622986,10.6330566,33.2626038c3.1401978,9.0985413,7.0056152,17.9440918,10.2896729,26.9961243  c4.2501831,11.7153015,8.1351318,23.5630798,12.3786011,35.2808838  c3.4975586,9.6582336,7.4229736,19.1616211,10.9151001,28.8216858  c4.4678955,12.3596497,8.5918579,24.8435059,13.0532837,37.2055359  c3.2229004,8.9305115,6.8973389,17.6981506,10.1151123,26.6304016  c5.0975952,14.1504822,9.8887939,28.4114075,14.9828491,42.5632019  c4.7654419,13.2384033,9.7901001,26.3831177,14.6387329,39.5917969  c5.6012573,15.2587891,11.201416,30.5187378,16.6739502,45.8239136  c3.5513916,9.9321289,6.7775879,19.9804688,10.3255005,29.9138794  c3.5975342,10.0726318,7.4800415,20.0432129,11.1074829,30.1054077c2.6565552,7.3690796,4.9093018,14.8901367,7.7758789,22.1725464  c0.7290649,1.8520508,2.9613037,3.2727661,4.7689819,4.4992065c2.3272705,1.5789795,3.7993164,0.1758423,4.6248169-2.0480957  c4.0010376-10.777832,8.1118774-21.5175171,11.9266968-32.3612671  c6.4244995-18.2618408,12.8629761-36.5234985,18.9081421-54.9126587  c6.0098267-18.2817383,11.8572998-36.6299438,17.1698608-55.1231079  c3.3510742-11.664978,5.5790405-23.6519165,8.3338623-35.4891357c0.7380981-3.1716309,1.6744385-6.3005981,2.3199463-9.489624  c1.2037964-5.9470825,2.3093262-11.9154053,3.3536987-17.8927002c0.3727417-2.1334229,0.4503174-4.3183899,0.6620483-6.4799194  c0.8864746-9.0499573,2.772644-18.1356506,2.4504395-27.142395c-0.6646729-18.578064-2.4981079-37.1147156-3.8867188-55.6656799  c-0.0903931-1.2065125-0.4023438-2.4154663-0.7532349-3.5804749c-3.4324951-11.397644-6.5154419-22.9205933-10.4793091-34.1315308  c-2.7727661-7.8420105-6.2571411-15.5369873-10.3269043-22.7907715  c-5.9555664-10.6150208-12.8708496-20.6866455-19.083252-31.1641541  c-3.7242432-6.2810059-6.5725098-13.0871887-10.3746948-19.3152466c-6.81073-11.1561279-11.6066895-23.150177-13.711792-35.8999939  c-2.850647-17.2649231-2.7677002-34.3655243,3.248291-51.4449615c4.8032837-13.6362,13.6182251-23.7253265,24.1016235-32.5342712  c10.6474609-8.9468689,23.4533691-13.2922821,37.5115967-13.7016449c2.9386597-0.085556,5.8527832-1.0130005,8.7781982-1.5525055  c0.0703125-0.4638672,0.140625-0.9277496,0.2109985-1.3916168c-4.3084717-4.2198944-8.5455322-8.5164337-12.9578247-12.6248169  c-1.9740601-1.838089-4.2658081-3.3457489-6.4709473-4.9228363c-12.6830444-9.070816-25.0513916-18.6374054-38.1755981-27.0190735  c-11.975769-7.6482468-24.4963379-14.5825882-37.28479-20.7835236  c-16.3258667-7.9161682-32.9998779-15.182457-49.8348999-21.9553909  c-11.1491699-4.4854126-22.7043457-8.145752-34.3336792-11.201355  c-11.9177856-3.1314011-24.1978149-4.8530426-36.2300415-7.5853043  c-27.7987671-6.3125076-56.1082153-6.3471603-84.3326721-6.6893196c-14.9075623-0.1807175-29.884613,0.9960518-44.7428284,2.452404  c-12.9545898,1.2697601-25.9129639,3.2001114-38.6384583,5.9202652  c-13.7459717,2.9382782-27.2793579,6.9395599-40.7980347,10.8487167  c-8.3246765,2.4072266-16.6385193,5.0565414-24.6177063,8.4061508  c-11.9938049,5.0348969-23.9232178,10.330574-35.4558411,16.3308945  c-15.6430359,8.1389313-31.4253235,16.2191086-46.171051,25.8245163  c-21.3419037,13.9021149-41.6339569,29.4090118-60.4329224,46.6664581  c-9.4745941,8.6976318-18.7348633,17.7579651-27.0984039,27.507019  c-12.7701721,14.8857727-24.7799835,30.4315033-36.8852081,45.875351c-3.1091156,3.966568-1.6163635,6.8752899,3.3461304,8.03862  c1.9796753,0.4640808,3.9458313,1.3311462,5.9310913,1.3710938c14.932312,0.3005981,29.8955231,1.1040649,44.7962189,0.482605  c25.365097-1.0579224,50.6917877-3.0385437,76.0333099-4.6518555c1.486908-0.094635,2.9613037-0.3779297,4.4432068-0.559845  c8.9234314-1.0956116,17.4549866,2.6606445,20.6985168,9.8734131c4.44104,9.8757629,6.4648132,19.7747803,1.2785339,30.4714966  c-3.7421875,7.7182617-9.6695557,11.2950745-17.3781433,12.1092224  c-9.9873657,1.0548706-20.0729675,1.1530457-30.1083984,1.7874451  C240.0356293,312.992157,232.7613678,313.65448,225.2348785,314.2462769z M98.6023102,327.1939697  c-0.9071198,1.4699402-1.7889481,2.4882812-2.2273636,3.6710815c-6.1174011,16.50354-12.4326019,32.9411316-18.125946,49.5910645  c-2.4804382,7.2537842-3.9100189,14.9052429-5.3654633,22.4630127  c-2.5133057,13.0509644-5.1120224,26.1122742-6.8419724,39.2786865  c-1.3411636,10.2073364-1.7791977,20.5749817-1.9670563,30.8831787  c-0.3390045,18.6006165-0.3520279,37.2117004-0.1766701,55.8153076c0.0857315,9.0955811,0.0977974,18.3162231,1.5645103,27.2467651  c2.5167465,15.3241577,5.9814453,30.5024414,9.3684082,45.6704102c2.3834381,10.6738892,5.2828064,21.2330322,7.9861145,31.8346558  c0.6016846,2.3596191,1.1847916,4.7449951,2.0555344,7.0113525c3.3493195,8.7171021,6.5313721,17.5144653,10.2951889,26.0527954  c6.3398819,14.3822632,12.6715546,28.795105,19.7814102,42.8016968  c5.0808945,10.0093994,11.2594376,19.4822998,17.2601166,28.9978638  c5.9971924,9.5100708,11.9396057,19.1088257,18.6929016,28.0760498  c12.6366577,16.7790527,26.3419952,32.6531372,41.2242889,47.5606079  c13.8411255,13.864624,28.2603149,27.079895,43.7986908,38.8961182  c19.8704987,15.1107178,40.8864899,28.6175537,63.467514,39.4485474c2.0219727,0.9699097,4.7964478,0.3703003,7.2214661,0.4996338  c-0.1424561-2.0430908,0.1585693-4.2435913-0.5014038-6.1028442c-3.5334778-9.9547119-7.328064-19.8163452-10.9827271-29.7285156  c-0.9827576-2.6653442-1.6767273-5.43927-2.7020569-8.0863647c-3.3067322-8.5369263-6.899231-16.9680176-10.0133362-25.5731812  c-2.8899536-7.9859009-5.1550903-16.1964722-7.9733887-24.2102661c-3.1453247-8.9436646-6.6455383-17.7618408-9.9135437-26.663208  c-2.7035522-7.3638306-5.2341003-14.7913818-7.9499207-22.1505127c-3.3546906-9.0905151-6.8533936-18.1279297-10.214386-27.2161255  c-0.7025146-1.8995972-0.9059906-3.9858398-1.6278229-5.8759155  c-5.2501373-13.7466431-10.7592163-27.3972778-15.8212128-41.2120972  c-4.7939301-13.083252-9.1404724-26.3304443-13.6950684-39.5015869c-0.310379-0.897583-0.7288513-1.7570801-1.0746155-2.6430664  c-3.3265076-8.5245972-6.7162476-17.0255127-9.9292755-25.5927124c-0.9484253-2.5288696-1.1982117-5.31604-2.1043701-7.8652954  c-3.399353-9.5633545-6.875-19.1009521-10.4498901-28.6000366c-1.8607483-4.9443359-4.1606598-9.7258911-5.9550934-14.6919556  c-2.6147308-7.2363892-4.7545776-14.6469116-7.4509277-21.850708c-5.15979-13.7852173-10.6766663-27.436615-15.8379974-41.2212219  c-3.6524811-9.7548523-6.9869232-19.6293945-10.4207001-29.4653931  c-3.0408325-8.7104797-5.8635559-17.5005798-9.0671997-26.1499939  c-5.1180878-13.8181763-10.5877075-27.5062866-15.6830368-41.3325806  c-3.0853729-8.3722839-5.6139679-16.9486389-8.6285477-25.3485718  c-4.0685349-11.3367615-8.8153915-22.4536438-12.3414993-33.9501038  C104.8489685,333.3080139,101.5400772,330.9926758,98.6023102,327.1939697z M505.8798218,937.5340576  c13.3241577-1.2375488,32.2459717-2.7911377,51.114502-4.836792c8.887146-0.9633789,17.7956543-2.3618774,26.4743652-4.4699097  c13.4250488-3.2610474,26.6544189-7.3247681,39.9802246-10.9989624c8.5443115-2.355896,9.5172119-4.3965454,5.666748-12.2473755  c-0.1182251-0.2408447-0.1520996-0.5215454-0.2407837-0.7783813c-2.5089722-7.2671509-4.876709-14.5871582-7.5661621-21.7868652  c-3.5443115-9.487793-7.5571289-18.8033447-10.9849243-28.3310547  c-7.0640869-19.6343994-13.8085327-39.3833618-20.814209-59.0390625  c-3.7597656-10.5484619-7.7261963-21.0247803-11.7271729-31.4847412  c-1.5441284-4.0369263-3.6328125-7.8676147-5.1394043-11.9165039c-3.1580811-8.4868774-6.0691528-17.0652466-9.1290283-25.5890503  c-3.335083-9.2904663-6.723877-18.5616455-10.0886841-27.8414307c-2.1707153-5.9868164-4.2915039-11.9923096-6.5219727-17.9567261  c-3.1177979-8.3370972-6.4078979-16.6104126-9.4560547-24.9724121c-3.1533203-8.6503296-6.0176392-17.4060059-9.1722412-26.0558472  c-2.7828979-7.6309204-5.8688354-15.151001-8.6809082-22.7717285c-3.3720093-9.1381836-6.4160767-18.4040527-10.0767822-27.421936  c-0.5488892-1.3522339-3.6360168-1.8726807-5.6506042-2.3134766c-0.6294556-0.1376953-2.0291748,1.0974731-2.3332825,1.9647827  c-2.1960754,6.2632446-4.2376404,12.5819702-6.258667,18.9052124c-3.2216187,10.0793457-6.2142029,20.2355347-9.6216125,30.2509766  c-4.8421021,14.232605-10.1026306,28.3227539-14.944519,42.5552979  c-5.245575,15.4190063-10.1634216,30.9490967-15.322998,46.3977661  c-3.947876,11.8204956-8.0475464,23.590271-12.0880737,35.3798218c-0.2197266,0.6411133-0.5412903,1.246582-0.7735596,1.8840332  c-2.8211365,7.7424927-5.7603149,15.4449463-8.414917,23.2442627c-2.7322998,8.0275879-5.0522156,16.1959839-7.7954102,24.2194824  c-3.1070557,9.0877686-6.5404968,18.0634155-9.7294312,27.1237183  c-4.0296021,11.4491577-8.0197449,22.913147-11.9101562,34.4102173  c-4.9124756,14.5171509-9.7325745,29.0657349-14.525116,43.6230469c-0.7179565,2.1809082-1.2058105,4.4613037-1.5627441,6.7329712  c-0.9338989,5.944397,0.1548767,7.4645996,6.0287476,8.8925781c5.269928,1.28125,10.504425,2.7269287,15.8081055,3.8463745  c14.5811462,3.0776978,29.0761414,6.9536743,43.8200378,8.7615356  C469.4372559,936.7767944,484.884552,936.5741577,505.8798218,937.5340576z M720.8262329,876.8482666  c0.3106689,0.4760742,0.6213989,0.9522705,0.9320679,1.4284058c2.9762573-0.9208374,6.3846436-1.2009277,8.8568115-2.8690186  c13.5820923-9.1647339,27.3817749-18.1008911,40.2460327-28.2108765  c13.94104-10.9562988,27.5806885-22.4667969,40.1532593-34.9437256  c11.2034912-11.1184082,21.1276245-23.6035767,30.9518433-36.0119019  c8.5577393-10.8085938,16.369812-22.2276001,24.1583252-33.6183472  c4.5778198-6.6950073,8.6373901-13.7651978,12.6210938-20.8406372c4.7159424-8.3756104,9.4741821-16.7636719,13.5317383-25.4646606  c5.0280151-10.7822266,9.6712036-21.770874,13.9070435-32.8889771  c5.3575439-14.0623779,10.9205322-28.1271362,14.9417114-42.5948486  c3.8757935-13.9437256,5.9360352-28.3950195,8.727478-42.6364136c1.7196045-8.7730103,4.5241699-17.5422974,4.7294312-26.3624268  c0.5306396-22.7920532,1.9188843-45.5432434,1.416687-68.4111633c-0.5245972-23.8842163-3.171936-47.3787231-7.612854-70.6893616  c-2.9147339-15.2993164-7.222168-30.3495789-11.3063965-45.4026794c-1.9840698-7.3120728-4.7214966-14.437561-7.4157715-21.5343018  c-3.2558594-8.5756531-6.6595459-17.1043091-10.3157959-25.5155945c-2.949585-6.7854614-6.3690796-13.3664856-9.8327026-20.5628357  c-0.9889526,1.2522888-1.9246826,1.8976135-2.0272827,2.6557312c-0.6277466,4.6382446-1.5803833,9.3138123-1.4746094,13.9552612  c0.352417,15.4664307,1.2028198,30.9209595,1.640625,46.3862915c0.1107788,3.9107056-0.9847412,7.8557129-0.8728638,11.7662659  c0.5102539,17.8246765,0.3280029,35.5635071-4.0564575,53.0144348  c-3.4691772,13.8082275-6.2595215,27.8119812-10.3240356,41.4386902  c-4.2501831,14.2491455-9.666687,28.1501465-14.565918,42.2058411c-3.2052002,9.1949463-6.1858521,18.4746094-9.6397095,27.5748291  c-6.763855,17.821167-13.9182129,35.4941406-20.6633911,53.3221436  c-5.269104,13.9262695-10.0141602,28.0505981-15.2683105,41.9827271  c-5.0706787,13.4458618-10.6670532,26.6935425-15.7283936,40.1427002  c-10.6450806,28.2867432-21.0286255,56.671814-31.6403809,84.9711304  c-7.0360107,18.7637939-14.2614136,37.456604-21.4408569,56.1662598  c-4.1096191,10.7095337-8.4401245,21.3362427-12.4071045,32.0977173  C727.4542236,857.1467285,724.2192383,867.0266113,720.8262329,876.8482666z"></path></g></svg>
